<svg xmlns="http://www.w3.org/2000/svg" viewBox="0 0 24 24" class="licons" fill="none" stroke="currentColor" stroke-width="1.5" stroke-linecap="round" stroke-linejoin="round"><path d="M13.31 5.77l2.962-2.963a2.77 2.77 0 0 1 3.917 0l1.004 1.004a2.77 2.77 0 0 1 0 3.917l-2.962 2.963-4.95-4.95.028.028z"/><path d="M18.23 10.69l-10.5 10.5a2.78 2.78 0 0 1-2 .81H2.69a.69.69 0 0 1-.69-.69v-3.08a2.78 2.78 0 0 1 .81-2l10.5-10.5z"/><path d="M13.31 5.77l2.828-2.829a3 3 0 0 1 4.242 0l.707.707a3 3 0 0 1 0 4.243l-2.828 2.828-4.95-4.95zM18.23 10.69L7.79 21.12a3 3 0 0 1-2.12.88H3a1 1 0 0 1-1-1v-2.67a3 3 0 0 1 .88-2.12L13.31 5.77z"/></svg>