<svg xmlns="http://www.w3.org/2000/svg" viewBox="0 0 24 24" class="licons" fill="none" stroke="currentColor" stroke-width="1.5" stroke-linecap="round" stroke-linejoin="round"><path d="M13.88 3.23l.07.18a2 2 0 0 0 2.74 1.14l.18-.08a2 2 0 0 1 2.66 2.66l-.08.18a2 2 0 0 0 1.14 2.74l.18.07a2 2 0 0 1 0 3.76l-.18.07a2 2 0 0 0-1.14 2.74l.08.18a2 2 0 0 1-2.66 2.66l-.18-.08A2 2 0 0 0 14 20.59l-.07.18a2 2 0 0 1-3.76 0l-.07-.18a2 2 0 0 0-2.74-1.14l-.18.08a2 2 0 0 1-2.66-2.66l.08-.18A2 2 0 0 0 3.41 14l-.18-.07a2 2 0 0 1 0-3.76l.18-.07a2 2 0 0 0 1.14-2.79l-.08-.18a2 2 0 0 1 2.66-2.66l.18.08a2 2 0 0 0 2.74-1.14l.07-.18a2 2 0 0 1 3.76 0z"/><circle cx="12" cy="12" r="2.5"/></svg>